<svg width="31" height="24" viewBox="0 0 31 24" fill="none" xmlns="http://www.w3.org/2000/svg">
<path d="M10.5999 12.7098C10.5062 12.6169 10.4318 12.5063 10.381 12.3844C10.3302 12.2625 10.3041 12.1318 10.3041 11.9998C10.3041 11.8678 10.3302 11.7371 10.381 11.6153C10.4318 11.4934 10.5062 11.3828 10.5999 11.2898L15.1899 6.70982C15.2836 6.61686 15.358 6.50625 15.4088 6.3844C15.4596 6.26254 15.4857 6.13183 15.4857 5.99982C15.4857 5.86781 15.4596 5.7371 15.4088 5.61524C15.358 5.49338 15.2836 5.38278 15.1899 5.28982C15.0025 5.10357 14.7491 4.99902 14.4849 4.99902C14.2207 4.99902 13.9673 5.10357 13.7799 5.28982L9.18989 9.87982C8.62809 10.4423 8.31253 11.2048 8.31253 11.9998C8.31253 12.7948 8.62809 13.5573 9.18989 14.1198L13.7799 18.7098C13.9662 18.8946 14.2176 18.9987 14.4799 18.9998C14.6115 19.0006 14.742 18.9754 14.8638 18.9256C14.9856 18.8758 15.0965 18.8025 15.1899 18.7098C15.2836 18.6169 15.358 18.5063 15.4088 18.3844C15.4596 18.2626 15.4857 18.1319 15.4857 17.9998C15.4857 17.8678 15.4596 17.7371 15.4088 17.6153C15.358 17.4934 15.2836 17.3828 15.1899 17.2898L10.5999 12.7098Z" fill="#B4AFAF"/>
<path d="M17.5999 12.7098C17.5062 12.6169 17.4318 12.5063 17.381 12.3844C17.3302 12.2625 17.3041 12.1318 17.3041 11.9998C17.3041 11.8678 17.3302 11.7371 17.381 11.6153C17.4318 11.4934 17.5062 11.3828 17.5999 11.2898L22.1899 6.70982C22.2836 6.61686 22.358 6.50625 22.4088 6.3844C22.4596 6.26254 22.4857 6.13183 22.4857 5.99982C22.4857 5.86781 22.4596 5.7371 22.4088 5.61524C22.358 5.49338 22.2836 5.38278 22.1899 5.28982C22.0025 5.10357 21.7491 4.99902 21.4849 4.99902C21.2207 4.99902 20.9673 5.10357 20.7799 5.28982L16.1899 9.87982C15.6281 10.4423 15.3125 11.2048 15.3125 11.9998C15.3125 12.7948 15.6281 13.5573 16.1899 14.1198L20.7799 18.7098C20.9662 18.8946 21.2176 18.9987 21.4799 18.9998C21.6115 19.0006 21.742 18.9754 21.8638 18.9256C21.9856 18.8758 22.0965 18.8025 22.1899 18.7098C22.2836 18.6169 22.358 18.5063 22.4088 18.3844C22.4596 18.2626 22.4857 18.1319 22.4857 17.9998C22.4857 17.8678 22.4596 17.7371 22.4088 17.6153C22.358 17.4934 22.2836 17.3828 22.1899 17.2898L17.5999 12.7098Z" fill="#B4AFAF"/>
</svg>
