<svg width="31" height="24" viewBox="0 0 31 24" fill="none" xmlns="http://www.w3.org/2000/svg">
<path d="M20.4001 12.7098C20.4938 12.6169 20.5682 12.5063 20.619 12.3844C20.6697 12.2625 20.6959 12.1318 20.6959 11.9998C20.6959 11.8678 20.6697 11.7371 20.619 11.6153C20.5682 11.4934 20.4938 11.3828 20.4001 11.2898L15.8101 6.70982C15.7164 6.61686 15.642 6.50625 15.5912 6.3844C15.5404 6.26254 15.5143 6.13183 15.5143 5.99982C15.5143 5.86781 15.5404 5.7371 15.5912 5.61524C15.642 5.49338 15.7164 5.38278 15.8101 5.28982C15.9974 5.10357 16.2509 4.99902 16.5151 4.99902C16.7793 4.99902 17.0327 5.10357 17.2201 5.28982L21.8101 9.87982C22.3719 10.4423 22.6874 11.2048 22.6874 11.9998C22.6874 12.7948 22.3719 13.5573 21.8101 14.1198L17.2201 18.7098C17.0338 18.8946 16.7824 18.9987 16.5201 18.9998C16.3885 19.0006 16.258 18.9754 16.1362 18.9256C16.0143 18.8758 15.9035 18.8025 15.8101 18.7098C15.7164 18.6169 15.642 18.5063 15.5912 18.3844C15.5404 18.2626 15.5143 18.1319 15.5143 17.9998C15.5143 17.8678 15.5404 17.7371 15.5912 17.6153C15.642 17.4934 15.7164 17.3828 15.8101 17.2898L20.4001 12.7098Z" fill="black"/>
<path d="M13.4001 12.7098C13.4938 12.6169 13.5682 12.5063 13.619 12.3844C13.6697 12.2625 13.6959 12.1318 13.6959 11.9998C13.6959 11.8678 13.6697 11.7371 13.619 11.6153C13.5682 11.4934 13.4938 11.3828 13.4001 11.2898L8.81008 6.70982C8.71635 6.61686 8.64196 6.50625 8.59119 6.3844C8.54042 6.26254 8.51428 6.13183 8.51428 5.99982C8.51428 5.86781 8.54042 5.7371 8.59119 5.61524C8.64196 5.49338 8.71635 5.38278 8.81008 5.28982C8.99744 5.10357 9.25089 4.99902 9.51508 4.99902C9.77926 4.99902 10.0327 5.10357 10.2201 5.28982L14.8101 9.87982C15.3719 10.4423 15.6874 11.2048 15.6874 11.9998C15.6874 12.7948 15.3719 13.5573 14.8101 14.1198L10.2201 18.7098C10.0338 18.8946 9.78242 18.9987 9.52008 18.9998C9.38847 19.0006 9.25801 18.9754 9.13617 18.9256C9.01433 18.8758 8.90352 18.8025 8.81008 18.7098C8.71635 18.6169 8.64196 18.5063 8.59119 18.3844C8.54042 18.2626 8.51428 18.1319 8.51428 17.9998C8.51428 17.8678 8.54042 17.7371 8.59119 17.6153C8.64196 17.4934 8.71635 17.3828 8.81008 17.2898L13.4001 12.7098Z" fill="black"/>
</svg>
